<?xml version="1.0" encoding="UTF-8"?><svg id="Horizontal_-_Color_on_White" xmlns="http://www.w3.org/2000/svg" viewBox="0 0 1010.7667 407.0666"><defs><style>.cls-1{fill:#09b36b;}.cls-1,.cls-2,.cls-3{stroke-width:0px;}.cls-2{fill:#fff;}.cls-3{fill:#2c2a6a;}</style></defs><g id="Black_On_White"><g id="Logo_Type"><path class="cls-2" d="M358.2333,212.6333c0-2.2-.3-4-1-5.6h-.1c-2.7-6.4-10.1-8.3-17.9-9.2-2.5-.3-4.9-.7-6.8-1.4h.6c-2.6-.9-4.3-2.2-4.3-4.6.1-3.4,3.2-6.1,9.8-6.1,5.1,0,9.6,2.6,11.2,5.3l7.1-3.6c0-.1-.1-.1-.1-.2h.1c-3.6-7.3-11.2-9.4-18.5-9.4-8.7.1-18.3,4-18.3,13.8v1.5c.7,9.5,9.2,11.9,18.5,13,6.2.7,10.9,2.5,10.9,6.9-.1,5-5.3,7-10.9,7-5.7,0-11.2-2.3-13.3-7.5l-7.4,3.8c0,.1.1.1.1.2h-.1c3.5,8.6,10.9,11.6,20.6,11.6,10.5,0,19.8-4.5,19.8-15q0-.4,0-.5h0Z"/><path class="cls-2" d="M452.8333,217.6333h-8.8v8.8h35.3v-8.8h-26.5Z"/><path class="cls-2" d="M461.3333,207.0333h17.1v-8.3h-25.6v-.1h-8.8v8.4h17.3Z"/><path class="cls-2" d="M444.0333,187.8333h35.3v-8.6h-35.3v8.6Z"/><path class="cls-2" d="M397.8333,179.1333h-13.3v8.5h13.3c11.3,0,11.4,16.7,0,16.7h-13.3v22.1h9.5v-13.9h3.9c23.1,0,23-33.4-.1-33.4Z"/><path class="cls-2" d="M527.0333,219.1333c-11.7,0-16.2-8.2-16.3-16-.1-7.9,4.9-16.4,16.3-16.4,4.1,0,8.3,1.4,11.4,4.5l5.9-5.7c-4.9-4.8-10.9-7.2-17.3-7.2-17.1,0-25.1,12.5-25,24.9.1,12.3,7.5,24.3,25,24.3,6.8,0,13.1-2.2,17.9-7l-6.1-6.1c-3,3-7.7,4.7-11.8,4.7Z"/><path class="cls-2" d="M565.9333,187.3333h15v39.1h8.9v-39.1h15v-8.1h-38.8v8.1h-.1Z"/><path class="cls-2" d="M638.3333,217.6333h-8.8v8.8h35.3v-8.8h-26.5Z"/><path class="cls-2" d="M647.3333,207.0333h16.5v-8.3h-25.6v-.1h-8.7v8.4h17.8Z"/><path class="cls-2" d="M629.5333,187.8333h35.3v-8.6h-35.3v8.6Z"/><path class="cls-1" d="M773.7334,178.2333c-16.3,0-24.3,12.5-24.3,24.9s7.7,24.3,24.3,24.3,24.1-12.2,24.2-24.4c.2-12.3-7.9-24.8-24.2-24.8ZM773.7334,219.3333c-11.1,0-15.3-8.3-15.5-16.1-.2-8,4.4-16.9,15.5-16.9s15.6,8.9,15.4,16.9c-.1,7.8-4.3,16.1-15.4,16.1Z"/><path class="cls-1" d="M830.7334,179.1333h-13.3v8.5h13.3c11.3,0,11.4,16.7,0,16.7h-13.4v22.1h8.6v-13.9h4.7c23.2,0,23.1-33.4.1-33.4Z"/><path class="cls-1" d="M900.2334,212.6333c0-2.2-.3-4-1-5.6h-.1c-2.7-6.4-10.1-8.3-17.9-9.2-2.5-.3-4.9-.7-6.8-1.4h.6c-.6-.2-1.1-.4-1.6-.7-1.7-.9-2.7-2.1-2.7-4,.1-3.4,3.2-6.1,9.8-6.1,5.1,0,9.6,2.6,11.2,5.3l7.1-3.6c0-.1-.1-.1-.1-.2h.1c-3.6-7.3-11.2-9.4-18.5-9.4h0c-8.7.1-18.3,4-18.3,13.8v1.5c.7,9.5,9.2,11.9,18.5,13,6.2.7,10.8,2.5,10.9,6.8-.1,5-5.3,7-10.9,7-5.7,0-11.2-2.3-13.3-7.5h0l-7.4,3.8c0,.1.1.1.1.2h-.1c3.5,8.6,10.9,11.6,20.6,11.6,10.5,0,19.8-4.5,19.8-15q0-.2,0-.3h0Z"/><path class="cls-2" d="M723.0333,194.8333c0-8.2-5.9-15.6-17-15.6h-13.6v8.3h13.6c5.6,0,8.1,3.8,8.1,7.6s-2.4,7.6-8.1,7.6h-13.5v23.7h8.6v-15.8l5.2-.5,14.3,16.3h10.6v-.6l-15.7-17.6c5.6-2.8,7.5-8.1,7.5-13.4Z"/></g><g id="Icon"><polygon class="cls-1" points="168.9333 187.7333 168.9333 194.3333 173.6333 200.0333 188.8333 200.7333 188.8333 187.7333 178.7333 182.0333 168.9333 187.7333"/><polygon class="cls-1" points="202.8333 187.7333 202.8333 200.9333 217.7333 200.0333 222.8333 194.3333 222.8333 187.7333 212.7333 182.0333 202.8333 187.7333"/><path class="cls-3" d="M264.1333,242.6333h0l-12.2-7,.1-.1v-64.2l-17.3-9.7-13-7.3-25.6-14.3-25.2,14.3-13,7.4-3.2,1.8-12.1-7.1,4-2.3,19-10.9,30.2-17.2,30.8,17.3,19,10.7,18.4,10.3h0l13.7-7.9v-.1l-25.4-14.2-19-10.7-37.5-21-36.9,21.1-19,10.9-24.4,13.9v.3l25.8,14.8v63.7l55.4,31.9,41.7-23.6,12,7.1-53.6,30.3-67.4-38.8-13.7,7.9,81,46.6,67.3-38.1h0l13.9-7.9v-.1l-13.8-7.8h0ZM154.9333,227.2333v-48l9.8-5.6,13-7.4,18.4-10.5,18.9,10.6,13,7.3,10.4,5.8v48.4l-41.7,23.6-41.8-24.2Z"/><polygon class="cls-3" points="267.1333 178.8333 267.1333 228.4333 281.6333 235.8333 281.6333 170.6333 267.1333 178.8333"/><polygon class="cls-3" points="125.1333 178.8333 110.5333 170.6333 110.5333 235.8333 125.1333 228.4333 125.1333 178.8333"/></g></g></svg>