<?xml version="1.0" encoding="utf-8"?>
<!-- Generator: Adobe Illustrator 24.0.1, SVG Export Plug-In . SVG Version: 6.00 Build 0)  -->
<svg version="1.1" id="Logo" xmlns="http://www.w3.org/2000/svg" xmlns:xlink="http://www.w3.org/1999/xlink" x="0px" y="0px"
	 viewBox="0 0 576 360" style="enable-background:new 0 0 576 360;" xml:space="preserve">
<style type="text/css">
	.st0{fill-rule:evenodd;clip-rule:evenodd;fill:#FFFFFF;}
	.st1{fill-rule:evenodd;clip-rule:evenodd;fill:#052D73;}
	.st2{fill-rule:evenodd;clip-rule:evenodd;fill:#154A91;}
	.st3{fill-rule:evenodd;clip-rule:evenodd;fill:#0B3C7E;}
	.st4{fill-rule:evenodd;clip-rule:evenodd;fill:#1C549C;}
	.st5{fill-rule:evenodd;clip-rule:evenodd;fill:#0C3D80;}
	.st6{fill-rule:evenodd;clip-rule:evenodd;fill:#1B539B;}
	.st7{fill-rule:evenodd;clip-rule:evenodd;fill:#2A69B7;}
	.st8{fill-rule:evenodd;clip-rule:evenodd;fill:#438DE3;}
	.st9{fill-rule:evenodd;clip-rule:evenodd;fill:#114489;}
	.st10{fill-rule:evenodd;clip-rule:evenodd;fill:#2E6EBD;}
	.st11{fill-rule:evenodd;clip-rule:evenodd;fill:#164B91;}
	.st12{fill-rule:evenodd;clip-rule:evenodd;fill:#164C93;}
	.st13{fill-rule:evenodd;clip-rule:evenodd;fill:#4F9EF9;}
	.st14{fill-rule:evenodd;clip-rule:evenodd;fill:#52A3FE;}
	.st15{fill-rule:evenodd;clip-rule:evenodd;fill:#52A3FF;}
	.st16{fill-rule:evenodd;clip-rule:evenodd;fill:#2C6BBA;}
	.st17{fill-rule:evenodd;clip-rule:evenodd;fill:#4D9CF6;}
	.st18{fill-rule:evenodd;clip-rule:evenodd;fill:#428BE1;}
	.st19{fill-rule:evenodd;clip-rule:evenodd;fill:#4894EC;}
	.st20{fill-rule:evenodd;clip-rule:evenodd;fill:#428CE3;}
	.st21{fill-rule:evenodd;clip-rule:evenodd;fill:#F1692A;}
	.st22{fill-rule:evenodd;clip-rule:evenodd;fill:#EF5F24;}
	.st23{fill-rule:evenodd;clip-rule:evenodd;fill:#EF6125;}
	.st24{fill-rule:evenodd;clip-rule:evenodd;fill:#EF6025;}
	.st25{fill-rule:evenodd;clip-rule:evenodd;fill:#F58239;}
	.st26{fill-rule:evenodd;clip-rule:evenodd;fill:#F68B3F;}
	.st27{fill-rule:evenodd;clip-rule:evenodd;fill:#F06326;}
	.st28{fill-rule:evenodd;clip-rule:evenodd;fill:#F16C2C;}
	.st29{fill-rule:evenodd;clip-rule:evenodd;fill:#F26F2D;}
	.st30{fill-rule:evenodd;clip-rule:evenodd;fill:#F37632;}
	.st31{fill-rule:evenodd;clip-rule:evenodd;fill:#F47F37;}
	.st32{fill-rule:evenodd;clip-rule:evenodd;fill:#F37833;}
	.st33{fill-rule:evenodd;clip-rule:evenodd;fill:#FAA850;}
	.st34{fill-rule:evenodd;clip-rule:evenodd;fill:#FFC663;}
	.st35{fill-rule:evenodd;clip-rule:evenodd;fill:#F48038;}
	.st36{fill-rule:evenodd;clip-rule:evenodd;fill:#F48139;}
	.st37{fill-rule:evenodd;clip-rule:evenodd;fill:#F68C3F;}
	.st38{fill-rule:evenodd;clip-rule:evenodd;fill:#FDBB5C;}
	.st39{fill-rule:evenodd;clip-rule:evenodd;fill:#F9A14C;}
	.st40{fill-rule:evenodd;clip-rule:evenodd;fill:#FFC461;}
</style>
<rect id="Background" class="st0" width="576" height="360"/>
<g id="Logo_Image">
	<g id="Exit">
		<path class="st1" d="M215.69,310.71c-3.64-0.18-7.07-0.59-10.28-1.2l-10.02,9.99c3.35,0.64,6.92,1.07,10.67,1.28
			c4.02,0.23,8.27,0.2,12.74-0.08l7.4-10.05C222.54,310.86,219.03,310.88,215.69,310.71z"/>
		<path class="st2" d="M228.56,310.48l-7.39,10.04c3.6-0.3,7.34-0.76,11.21-1.39c4.4-0.72,8.98-1.66,13.72-2.83l2.56-0.65l4.36-9.41
			l-1.58,0.4c-4.17,1.03-8.22,1.86-12.13,2.51C235.6,309.77,232.01,310.21,228.56,310.48z"/>
		<path class="st3" d="M239.51,307.32c3.82-0.63,7.79-1.45,11.91-2.47l2.56-0.65l4.36-9.41l-1.58,0.4c-3.56,0.88-7,1.59-10.31,2.14
			c-3.13,0.52-6.15,0.91-9.07,1.16L230,308.54C233.06,308.27,236.24,307.86,239.51,307.32z"/>
		<path class="st4" d="M266.08,282.69l-4.36,9.4c3.48-0.98,6.97-2.09,10.46-3.31c3.9-1.37,7.82-2.9,11.73-4.56l1.17-8.2
			c-3.06,1.29-6.13,2.48-9.19,3.56C272.61,280.74,269.33,281.78,266.08,282.69z"/>
		<path class="st5" d="M272.49,290.48c-3.93,1.38-7.85,2.61-11.73,3.67l-4.36,9.4c4.09-1.13,8.22-2.43,12.37-3.88
			c4.56-1.59,9.13-3.37,13.68-5.3l1.17-8.2C279.92,287.74,276.2,289.18,272.49,290.48z"/>
		<path class="st6" d="M298.44,288.81c-4.87,2.47-9.79,4.77-14.73,6.88c-4.88,2.09-9.76,3.99-14.63,5.69
			c-4.55,1.59-9.1,3-13.63,4.23l-4.36,9.4c4.73-1.29,9.5-2.78,14.28-4.44c5.45-1.9,10.93-4.02,16.38-6.35
			c5.53-2.37,11.05-4.94,16.53-7.72c5.28-2.67,10.5-5.5,15.63-8.48l-2-6.52C307.45,284.09,302.95,286.53,298.44,288.81z"/>
		<path class="st7" d="M297.75,287.26c4.61-2.33,9.17-4.81,13.66-7.41l-2-6.52c-3.81,2.2-7.65,4.28-11.5,6.23
			c-3.97,2.01-7.99,3.9-12.01,5.65l-1.17,8.19C289.08,291.5,293.43,289.45,297.75,287.26z"/>
		<path class="st8" d="M297.23,278.01c4.24-2.15,8.43-4.43,12.53-6.83c4.12-2.41,8.22-4.97,12.27-7.65
			c3.7-2.46,7.33-5.01,10.87-7.63l-5-4.47c-3.04,2.25-6.14,4.42-9.29,6.51c-3.41,2.26-6.92,4.44-10.51,6.54
			c-3.55,2.07-7.13,4.03-10.72,5.85c-3.31,1.68-6.66,3.26-10.03,4.73l-1.17,8.19C289.88,281.62,293.56,279.87,297.23,278.01z"/>
		<path class="st2" d="M323.05,264.89c-3.77,2.5-7.64,4.93-11.59,7.25l2,6.52c4.37-2.58,8.72-5.31,13.01-8.17
			c4.68-3.11,9.27-6.36,13.72-9.71c4.49-3.37,8.86-6.87,13.08-10.45c3.81-3.24,7.5-6.55,11.04-9.91l-7.72-2.16
			c-3.23,3.07-6.6,6.08-10.07,9.01c-3.7,3.13-7.53,6.18-11.46,9.13C331.14,259.34,327.13,262.18,323.05,264.89z"/>
		<path class="st9" d="M342.34,261.28l5,4.47c4.77-3.62,9.44-7.37,13.96-11.22c4.39-3.74,8.62-7.55,12.67-11.41l-7.72-2.16
			c-3.75,3.58-7.65,7.09-11.68,10.51C350.62,254.82,346.54,258.1,342.34,261.28z"/>
		<path class="st4" d="M345.23,246.13c3.25-2.75,6.4-5.56,9.43-8.42l-7.72-2.16c-2.73,2.57-5.55,5.08-8.45,7.52
			c-2.82,2.38-5.74,4.7-8.72,6.96l5,4.47C338.35,251.79,341.84,249,345.23,246.13z"/>
		<path class="st10" d="M348.66,233.91l7.72,2.16c3.18-3.06,6.21-6.17,9.1-9.32c2.63-2.87,5.13-5.79,7.5-8.72l-10.02,0.34
			c-2.2,2.72-4.54,5.43-7.01,8.11C353.64,228.97,351.2,231.46,348.66,233.91z"/>
		<path class="st11" d="M378.16,228.78c-3.23,3.55-6.64,7.07-10.2,10.54l7.72,2.16c4.19-4.07,8.2-8.22,12-12.42
			c3.94-4.36,7.65-8.77,11.09-13.19l1.42-1.86h-9.79c-0.74,0.99-1.51,1.98-2.28,2.97C385.02,220.96,381.68,224.9,378.16,228.78z"/>
		<path class="st12" d="M378.38,214.01l-0.47,0.62l-2.58,3.32c-2.59,3.25-5.35,6.48-8.27,9.67c-2.78,3.04-5.71,6.04-8.75,8.99
			l7.72,2.16c3.67-3.55,7.2-7.18,10.54-10.87c3.09-3.4,6.03-6.84,8.78-10.29l1.5-1.95h0.01l1.27-1.66H378.38z"/>
		<path class="st13" d="M321.06,130.16c-4.58,1.51-9.16,3.2-13.71,5.06l-1.18,8.22c3.75-1.5,7.5-2.87,11.22-4.1
			c4.15-1.37,8.3-2.57,12.42-3.59l2.54-0.6l4.38-9.44l-1.57,0.38C330.51,127.23,325.8,128.6,321.06,130.16z"/>
		<path class="st14" d="M345.9,134.6c-3.86,0.44-7.9,1.11-12.11,2.02l-4.39,9.47c3.36-0.68,6.59-1.19,9.69-1.53
			c3.37-0.37,6.59-0.53,9.65-0.49l7.44-10.11C352.92,133.98,349.49,134.19,345.9,134.6z"/>
		<path class="st15" d="M289.43,141.49c5.51-2.75,11.09-5.3,16.7-7.6c4.91-2.02,9.81-3.84,14.67-5.45
			c4.79-1.58,9.57-2.97,14.32-4.14l2.54-0.61l4.38-9.44l-1.57,0.38c-5.28,1.3-10.63,2.85-16,4.63c-5.48,1.81-10.97,3.86-16.42,6.1
			c-6.16,2.54-12.33,5.36-18.47,8.43c-5.94,2.97-11.81,6.15-17.58,9.51l2,6.52C279.1,146.86,284.26,144.07,289.43,141.49z"/>
		<path class="st16" d="M408.5,142.72c-1.09-2.31-2.44-4.44-4.04-6.39l-12,9.19c0.96,1.21,1.81,2.49,2.55,3.84h15.76
			C410.23,147.01,409.48,144.79,408.5,142.72z"/>
		<path class="st10" d="M392.31,149.36c-0.68-1.1-1.43-2.14-2.25-3.12c-1.6-1.91-3.51-3.62-5.69-5.12
			c-1.96-1.35-4.16-2.52-6.59-3.51l-10.12,10.09c1.19,0.53,2.33,1.1,3.39,1.73c0.94-0.05,1.89-0.08,2.85-0.08H392.31z"/>
		<path class="st17" d="M398.88,128.3c2.37,1.57,4.48,3.35,6.31,5.34l11.97-9.17c-2.04-2.16-4.38-4.1-7.01-5.8
			c-2.67-1.73-5.65-3.21-8.91-4.43l-10.09,10.07C393.96,125.41,396.55,126.75,398.88,128.3z"/>
		<path class="st8" d="M397.26,129.89c-2.32-1.54-4.91-2.87-7.75-3.97l-10.1,10.08c2.41,1,4.61,2.19,6.6,3.55
			c2.01,1.38,3.8,2.94,5.36,4.68l11.98-9.17C401.58,133.12,399.55,131.4,397.26,129.89z"/>
		<path class="st18" d="M365.92,146.99L376,136.93c-2.45-0.86-5.1-1.55-7.94-2.04c-3-0.52-6.23-0.82-9.66-0.91l-7.47,10.15
			c2.75,0.12,5.34,0.41,7.76,0.86C361.28,145.48,363.69,146.15,365.92,146.99z"/>
		<path class="st19" d="M369.04,133.06c3.08,0.53,5.96,1.28,8.6,2.24l10.08-10.05c-2.86-0.98-5.97-1.75-9.29-2.29
			c-3.7-0.61-7.69-0.93-11.94-0.97c-4.22-0.03-8.72,0.22-13.46,0.79c-4.43,0.53-9.08,1.32-13.92,2.39l-4.39,9.47
			c4-0.84,7.84-1.47,11.5-1.89c4.25-0.49,8.28-0.69,12.08-0.64C362.12,132.16,365.7,132.48,369.04,133.06z"/>
		<path class="st20" d="M379.38,121.12c3.58,0.59,6.9,1.42,9.97,2.5l10.07-10.04c-3.29-1.1-6.84-1.96-10.64-2.55
			c-3.96-0.62-8.22-0.96-12.74-1.01l-7.45,10.13C372.4,120.24,376,120.57,379.38,121.12z"/>
	</g>
	<g id="Entrance">
		<path class="st21" d="M290.53,81.69c-4.25,2.13-8.44,4.41-12.54,6.81c-4.12,2.41-8.21,4.98-12.25,7.68
			c-3.69,2.47-7.31,5.05-10.83,7.7l5.22,4.86c3.03-2.28,6.12-4.47,9.25-6.57c3.4-2.27,6.91-4.47,10.49-6.56
			c3.55-2.07,7.14-4.02,10.73-5.83c3.32-1.67,6.68-3.23,10.06-4.68l0.94-8.59C297.9,78.12,294.2,79.85,290.53,81.69z"/>
		<path class="st22" d="M372.5,49.75c3.7,0.3,7.21,0.83,10.5,1.58l9.89-10.21c-3.43-0.78-7.07-1.34-10.9-1.67
			c-4.1-0.36-8.42-0.46-12.96-0.3L361.8,49.5C365.53,49.38,369.1,49.47,372.5,49.75z"/>
		<path class="st23" d="M359.41,49.6l7.21-10.35c-3.66,0.2-7.45,0.58-11.37,1.12c-4.45,0.62-9.08,1.47-13.88,2.56l-2.59,0.61
			l-4.15,9.77l1.59-0.37c4.21-0.96,8.31-1.71,12.27-2.27C352.28,50.14,355.91,49.78,359.41,49.6z"/>
		<path class="st24" d="M348.37,52.59c-3.86,0.55-7.88,1.29-12.05,2.23l-2.58,0.61l-4.16,9.77l1.6-0.37
			c3.59-0.81,7.07-1.46,10.43-1.94c3.17-0.46,6.23-0.77,9.2-0.95l7.21-10.34C354.9,51.8,351.68,52.12,348.37,52.59z"/>
		<path class="st25" d="M322.08,77.72l4.15-9.76c-3.51,0.92-7.03,1.98-10.54,3.17c-3.93,1.33-7.87,2.81-11.8,4.44l-0.95,8.59
			c3.07-1.26,6.16-2.42,9.24-3.47C315.49,79.56,318.8,78.57,322.08,77.72z"/>
		<path class="st26" d="M315.32,69.32c3.96-1.33,7.9-2.51,11.82-3.51l4.15-9.76c-4.13,1.07-8.29,2.31-12.47,3.71
			c-4.59,1.54-9.19,3.26-13.76,5.16l-0.94,8.59C307.84,71.98,311.58,70.58,315.32,69.32z"/>
		<path class="st27" d="M288.96,70.29c4.88-2.45,9.82-4.72,14.78-6.8c4.9-2.05,9.81-3.91,14.71-5.55c4.58-1.53,9.16-2.89,13.74-4.04
			l4.15-9.76c-4.78,1.22-9.58,2.64-14.4,4.24c-5.49,1.83-10.99,3.9-16.47,6.19c-5.56,2.32-11.1,4.87-16.59,7.62
			c-5.29,2.65-10.51,5.47-15.65,8.45l2.23,6.92C279.94,74.99,284.44,72.56,288.96,70.29z"/>
		<path class="st28" d="M289.71,71.94c-4.62,2.32-9.19,4.78-13.67,7.38l2.23,6.92c3.81-2.2,7.65-4.27,11.51-6.2
			c3.98-2,8.01-3.86,12.05-5.58l0.94-8.58C298.41,67.74,294.04,69.77,289.71,71.94z"/>
		<path class="st29" d="M264.65,94.72c3.76-2.52,7.62-4.96,11.57-7.28l-2.23-6.92c-4.37,2.58-8.71,5.33-12.99,8.2
			c-4.67,3.14-9.24,6.41-13.67,9.8c-4.46,3.41-8.8,6.96-12.99,10.6c-3.78,3.29-7.43,6.66-10.94,10.1l7.92,2.51
			c3.2-3.13,6.53-6.2,9.97-9.18c3.67-3.18,7.48-6.28,11.39-9.26C256.59,100.31,260.59,97.45,264.65,94.72z"/>
		<path class="st30" d="M245.13,97.93l-5.22-4.86c-4.75,3.67-9.38,7.47-13.86,11.38c-4.36,3.8-8.55,7.69-12.55,11.63l7.92,2.51
			c3.7-3.65,7.57-7.23,11.56-10.71C236.9,104.48,240.96,101.15,245.13,97.93z"/>
		<path class="st31" d="M242.66,113.79c-3.23,2.79-6.34,5.66-9.34,8.57l7.92,2.51c2.7-2.62,5.49-5.18,8.36-7.65
			c2.8-2.42,5.7-4.77,8.66-7.06l-5.22-4.86C249.48,108.04,246.01,110.88,242.66,113.79z"/>
		<path class="st26" d="M239.55,126.76l-7.91-2.5c-3.13,3.12-6.13,6.3-8.96,9.52c-2.58,2.94-5.04,5.92-7.36,8.94l10.17-0.05
			c2.15-2.79,4.45-5.57,6.88-8.31C234.64,131.8,237.04,129.26,239.55,126.76z"/>
		<path class="st32" d="M221.05,132.82c2.73-3.11,5.61-6.18,8.61-9.19l-7.91-2.5c-3.62,3.62-7.09,7.33-10.38,11.1
			c-3.04,3.48-5.92,7.01-8.61,10.55l-1.46,1.95h0l-0.13,0.18l-0.02,0.03c-2.77,3.76-5.33,7.54-7.67,11.34
			c-1.12,1.82-2.19,3.64-3.2,5.47c0.37,0.15,0.74,0.32,1.09,0.49c1.53,0.75,2.9,1.66,4.11,2.73l4.02-0.91
			c1.68-3.35,3.57-6.71,5.65-10.05c1.73-2.77,3.59-5.54,5.56-8.27h0l2.22-3C215.46,139.39,218.17,136.08,221.05,132.82z"/>
		<path class="st33" d="M209.73,131.27c3.17-3.63,6.53-7.23,10.05-10.77l-7.91-2.5c-4.13,4.15-8.08,8.39-11.81,12.68
			c-3.87,4.46-7.51,8.98-10.87,13.53c-3.34,4.52-6.43,9.1-9.25,13.73l-1,1.67c1.05,0.04,2.12,0.12,3.22,0.23
			c1.76,0.18,3.34,0.44,4.71,0.78c0.54,0.13,1.06,0.28,1.56,0.44c1.01-1.8,2.06-3.6,3.17-5.4c2.54-4.13,5.34-8.24,8.37-12.31
			C203,139.27,206.27,135.23,209.73,131.27z"/>
		<path class="st34" d="M302.43,225.62c-5.54,2.74-11.15,5.25-16.8,7.51c-4.95,1.98-9.89,3.76-14.8,5.31
			c-4.83,1.53-9.67,2.84-14.48,3.93l-2.57,0.56l-4.18,9.83l1.59-0.35c5.35-1.21,10.75-2.69,16.18-4.4
			c5.53-1.75,11.07-3.74,16.56-5.94c6.2-2.49,12.42-5.28,18.58-8.33c5.97-2.95,11.86-6.13,17.64-9.5l-2.23-6.94
			C312.8,220.27,307.63,223.05,302.43,225.62z"/>
		<path class="st35" d="M181.51,220.77c1.17,2.46,2.61,4.74,4.3,6.84l11.91-9.29c-1.04-1.34-1.97-2.75-2.78-4.24h-15.85
			C179.7,216.43,180.51,218.67,181.51,220.77z"/>
		<path class="st36" d="M197.63,214.08c0.75,1.25,1.59,2.44,2.51,3.56c1.69,2.06,3.67,3.91,5.93,5.55c2.03,1.48,4.31,2.77,6.8,3.88
			l9.97-10.3c-1.67-0.8-3.23-1.7-4.66-2.69H197.63z"/>
		<path class="st37" d="M191.72,236.22c-2.45-1.72-4.65-3.66-6.57-5.8l-11.88,9.27c2.13,2.33,4.58,4.45,7.3,6.31
			c2.77,1.89,5.84,3.55,9.18,4.93l9.95-10.27C196.8,239.4,194.14,237.91,191.72,236.22z"/>
		<path class="st36" d="M193.32,234.6c2.4,1.69,5.07,3.16,7.99,4.41l9.96-10.28c-2.48-1.12-4.75-2.44-6.81-3.93
			c-2.09-1.51-3.95-3.21-5.59-5.08l-11.89,9.28C188.84,231.06,190.95,232.94,193.32,234.6z"/>
		<path class="st38" d="M221.49,232.1c-3.16-0.66-6.11-1.54-8.84-2.63l-9.97,10.29c2.95,1.12,6.14,2.03,9.54,2.7
			c3.8,0.75,7.87,1.22,12.21,1.38c4.31,0.16,8.88,0.03,13.7-0.42c4.5-0.42,9.22-1.11,14.13-2.1l4.19-9.85
			c-4.05,0.77-7.95,1.31-11.67,1.64c-4.32,0.38-8.43,0.48-12.31,0.31C228.58,233.26,224.91,232.81,221.49,232.1z"/>
		<path class="st39" d="M211.3,244.38c-3.67-0.73-7.09-1.71-10.24-2.94l-9.97,10.29c3.38,1.26,7.03,2.27,10.93,3.02
			c4.06,0.78,8.42,1.26,13.03,1.45l7.29-10.46C218.45,245.52,214.76,245.07,211.3,244.38z"/>
		<path class="st40" d="M270.51,236.61c4.62-1.46,9.24-3.1,13.83-4.92l0.95-8.64c-3.78,1.47-7.56,2.81-11.32,3.99
			c-4.19,1.32-8.39,2.46-12.56,3.4l-2.57,0.56l-4.18,9.83l1.59-0.35C260.97,239.41,265.73,238.12,270.51,236.61z"/>
	</g>
</g>
<g>
	<path class="st17" d="M346.47,158.37v1.47v6.33v1.47h-34.83c-1.28,0-2.2,0.34-2.73,1c-0.53,0.67-0.8,1.58-0.8,2.73v2.26
		c0,2.49,1.15,3.73,3.46,3.73h24.97c3.86,0,6.77,0.99,8.72,2.96c1.95,1.97,2.93,4.8,2.93,8.49v5.33c0,3.24-0.96,5.86-2.87,7.86
		c-1.91,2-4.89,3-8.92,3h-38.43v-1.47v-6.32v-1.47h36.5c1.29,0,2.2-0.33,2.73-1c0.53-0.66,0.8-1.58,0.8-2.73v-2.73
		c0-2.49-1.15-3.73-3.46-3.73h-24.97c-3.86,0-6.77-0.99-8.72-2.96c-1.95-1.98-2.93-4.81-2.93-8.49v-4.86c0-3.24,0.96-5.86,2.87-7.86
		c1.91-2,4.88-3,8.92-3H346.47L346.47,158.37z M416.3,162.4c-1.49,1.4-2.58,3.21-3.26,5.43c-0.69,2.22-1.03,4.93-1.03,8.13v11.46
		c0,3.2,0.34,5.91,1.03,8.16c0.69,2.24,1.78,4.06,3.26,5.46c1.49,1.4,3.41,2.41,5.76,3.03c2.35,0.62,5.22,0.93,8.59,0.93h31.5v-1.47
		V197v-1.46h-31.1c-1.73,0-3.17-0.14-4.3-0.43c-1.13-0.29-2.03-0.78-2.7-1.47c-0.67-0.69-1.14-1.62-1.43-2.8
		c-0.29-1.18-0.43-2.65-0.43-4.43v-9.46c0-1.78,0.14-3.24,0.43-4.4c0.29-1.15,0.77-2.08,1.43-2.76c0.67-0.69,1.56-1.18,2.7-1.47
		c1.13-0.29,2.57-0.43,4.3-0.43h31.1v-1.53v-6.53v-1.47h-31.5c-3.37,0-6.24,0.32-8.59,0.97C419.71,159.98,417.78,161,416.3,162.4
		L416.3,162.4z M405.41,158.37v1.47v6.53v1.53h-31.1c-1.73,0-3.17,0.15-4.3,0.43c-1.13,0.29-2.03,0.78-2.7,1.47
		c-0.67,0.69-1.14,1.61-1.43,2.76c-0.29,1.15-0.43,2.62-0.43,4.4v9.46c0,1.78,0.15,3.25,0.43,4.43c0.29,1.18,0.76,2.11,1.43,2.8
		c0.67,0.69,1.56,1.18,2.7,1.47c1.13,0.29,2.56,0.43,4.3,0.43h31.1V197v6.53v1.47h-31.5c-3.37,0-6.24-0.31-8.59-0.93
		c-2.35-0.62-4.27-1.63-5.76-3.03c-1.49-1.4-2.57-3.22-3.26-5.46c-0.69-2.24-1.03-4.96-1.03-8.16v-11.46c0-3.2,0.34-5.91,1.03-8.13
		c0.69-2.22,1.78-4.03,3.26-5.43c1.49-1.4,3.41-2.42,5.76-3.06c2.35-0.64,5.22-0.97,8.59-0.97H405.41L405.41,158.37z M482.46,158.37
		c0.98,0,1.82,0.07,2.53,0.2c0.71,0.13,1.33,0.39,1.86,0.77c0.53,0.38,1.01,0.89,1.43,1.53c0.42,0.64,0.85,1.5,1.3,2.56l13.85,31.97
		c0.18,0.4,0.49,0.6,0.93,0.6h0.8c0.45,0,0.76-0.2,0.93-0.6l13.85-31.97c0.44-1.07,0.88-1.92,1.3-2.56c0.42-0.64,0.9-1.16,1.43-1.53
		c0.53-0.38,1.14-0.63,1.83-0.77c0.69-0.13,1.52-0.2,2.5-0.2h7.13c2.31,0,3.86,0.52,4.66,1.57c0.8,1.04,1.2,2.83,1.2,5.36v38.23
		v1.47h-9.79v-1.47v-34.76c0-0.44-0.18-0.66-0.53-0.66h-0.6c-0.44,0-0.73,0.18-0.87,0.53l-13.45,29.84
		c-0.53,1.2-1.08,2.21-1.63,3.03c-0.55,0.82-1.15,1.5-1.8,2.03c-0.64,0.53-1.38,0.91-2.2,1.13c-0.82,0.22-1.79,0.33-2.9,0.33h-3.2
		c-1.11,0-2.08-0.11-2.9-0.33c-0.82-0.22-1.55-0.6-2.2-1.13c-0.64-0.53-1.24-1.21-1.8-2.03c-0.55-0.82-1.1-1.83-1.63-3.03
		l-13.45-29.84c-0.13-0.35-0.42-0.53-0.87-0.53h-0.6c-0.36,0-0.53,0.22-0.53,0.66v34.76v1.47h-9.79v-1.47V165.3
		c0-2.53,0.4-4.32,1.2-5.36c0.8-1.04,2.38-1.57,4.73-1.57H482.46z"/>
	<path class="st35" d="M80.15,168.43v1.2v5.33v1.2H48.92c-1.37,0-2.33,0.26-2.86,0.77c-0.53,0.51-0.8,1.25-0.8,2.23v1
		c0,0.89,0.27,1.59,0.8,2.1c0.53,0.51,1.49,0.77,2.86,0.77h22.44c3.73,0,6.39,0.78,7.99,2.33c1.6,1.55,2.4,3.75,2.4,6.59v3.73
		c0,1.47-0.18,2.77-0.53,3.93c-0.35,1.15-0.94,2.13-1.76,2.93c-0.82,0.8-1.9,1.41-3.23,1.83c-1.33,0.42-2.98,0.63-4.93,0.63H36v-1.2
		v-5.33v-1.2h32.77c1.38,0,2.34-0.25,2.9-0.73c0.55-0.49,0.83-1.31,0.83-2.46v-1.8c0-0.89-0.28-1.58-0.83-2.07
		c-0.55-0.49-1.52-0.73-2.9-0.73H46.39c-3.73,0-6.39-0.77-7.99-2.3c-1.6-1.53-2.4-3.76-2.4-6.69v-2.93c0-1.38,0.18-2.63,0.53-3.76
		c0.35-1.13,0.94-2.1,1.76-2.9c0.82-0.8,1.9-1.41,3.23-1.83c1.33-0.42,2.97-0.63,4.93-0.63H80.15L80.15,168.43z M98.47,155.04v1.47
		v11.92h24.91c2.98,0,5.48,0.26,7.53,0.77c2.04,0.51,3.67,1.31,4.9,2.4c1.22,1.09,2.1,2.49,2.63,4.2c0.53,1.71,0.8,3.76,0.8,6.16
		v21.58v1.47h-9.46v-1.47v-19.31c0-1.38-0.09-2.54-0.27-3.5c-0.18-0.95-0.52-1.71-1.03-2.26c-0.51-0.56-1.21-0.96-2.1-1.2
		c-0.89-0.24-2.04-0.37-3.46-0.37H98.47v26.64v1.47h-9.46v-1.47v-47.02v-1.47H98.47L98.47,155.04z M177.05,168.43
		c2.97,0,5.48,0.26,7.52,0.77c2.04,0.51,3.67,1.31,4.89,2.4c1.22,1.09,2.1,2.49,2.63,4.2c0.53,1.71,0.8,3.76,0.8,6.16v17.72v5.33
		h-36.63c-1.95,0-3.59-0.19-4.9-0.57c-1.31-0.38-2.36-0.94-3.16-1.7c-0.8-0.75-1.36-1.73-1.7-2.93c-0.33-1.2-0.5-2.62-0.5-4.26v-3.2
		c0-1.38,0.17-2.61,0.5-3.7c0.33-1.09,0.9-2.01,1.7-2.76c0.8-0.76,1.85-1.32,3.16-1.7c1.31-0.38,2.94-0.57,4.9-0.57h27.1v-1.27
		c0-1.07-0.11-1.98-0.33-2.73c-0.22-0.76-0.6-1.37-1.13-1.83c-0.53-0.47-1.26-0.81-2.2-1.03c-0.93-0.22-2.13-0.33-3.6-0.33h-29.03
		v-1.2v-5.59v-1.2H177.05L177.05,168.43z M181.45,197.66c0.71,0,1.21-0.16,1.5-0.5c0.29-0.33,0.43-0.92,0.43-1.77v-5.86H159
		c-1.38,0-2.34,0.28-2.9,0.83c-0.56,0.56-0.83,1.36-0.83,2.43v1.4c0,1.2,0.28,2.08,0.83,2.63c0.56,0.55,1.52,0.83,2.9,0.83H181.45
		L181.45,197.66z M235.52,168.43v1.2v5.59v1.2h-18.91c-1.42,0-2.6,0.12-3.53,0.37c-0.93,0.24-1.68,0.64-2.23,1.2
		c-0.55,0.55-0.94,1.31-1.17,2.26c-0.22,0.95-0.33,2.12-0.33,3.49v19.78v1.47h-9.52v-1.47v-21.58c0-2.4,0.27-4.45,0.8-6.16
		c0.53-1.71,1.41-3.11,2.63-4.2c1.22-1.09,2.84-1.89,4.86-2.4c2.02-0.51,4.54-0.77,7.56-0.77H235.52L235.52,168.43z M275.15,168.43
		c2.98,0,5.48,0.26,7.52,0.77c2.04,0.51,3.67,1.31,4.9,2.4c1.22,1.09,2.1,2.49,2.63,4.2c0.53,1.71,0.8,3.76,0.8,6.16v9.59
		c0,2.4-0.27,4.45-0.8,6.16c-0.53,1.71-1.41,3.11-2.63,4.2c-1.22,1.09-2.85,1.88-4.9,2.36c-2.04,0.49-4.55,0.73-7.52,0.73h-24.97
		v13.25v1.47h-9.52v-1.47v-36.3c0-2.4,0.27-4.45,0.8-6.16c0.53-1.71,1.41-3.11,2.63-4.2c1.22-1.09,2.84-1.89,4.86-2.4
		c2.02-0.51,4.54-0.77,7.56-0.77H275.15L275.15,168.43z M250.17,197h24.04c1.47,0,2.66-0.11,3.6-0.33c0.93-0.22,1.68-0.62,2.23-1.2
		c0.55-0.58,0.94-1.33,1.17-2.26c0.22-0.93,0.33-2.11,0.33-3.53v-5.93c0-1.38-0.11-2.54-0.33-3.49c-0.22-0.96-0.61-1.71-1.17-2.26
		c-0.56-0.56-1.3-0.95-2.23-1.2c-0.93-0.25-2.13-0.37-3.6-0.37h-16.78c-1.42,0-2.6,0.12-3.53,0.37c-0.93,0.24-1.68,0.64-2.23,1.2
		c-0.56,0.55-0.94,1.31-1.17,2.26c-0.22,0.95-0.33,2.12-0.33,3.49V197z"/>
</g>
</svg>
